<svg id="Layer_1" data-name="Layer 1" xmlns="http://www.w3.org/2000/svg" viewBox="0 0 500 500"><defs><style>.cls-1{fill:#0380ae;}.cls-2{font-size:27px;fill:#1c1c1c;font-family:MyriadPro-Regular, Myriad Pro;}.cls-3{letter-spacing:-0.01em;}</style></defs><path class="cls-1" d="M29.79,271.84l26.92-35c2.58-3.2,5-6,7.74-9.22v-.24H32.25v-8.73H77.6l-.12,6.76L50.93,259.93c-2.45,3.31-4.91,6.26-7.62,9.34v.24H78.09v8.6H29.79Z"/><path class="cls-1" d="M122.11,278.11l-.86-7.49h-.37a22.12,22.12,0,0,1-18.18,8.84c-12,0-18.19-8.48-18.19-17.08,0-14.38,12.78-22.24,35.76-22.12V239c0-4.91-1.35-13.76-13.52-13.76a29.66,29.66,0,0,0-15.48,4.42l-2.46-7.12c4.92-3.2,12-5.29,19.54-5.29,18.19,0,22.61,12.41,22.61,24.33v22.25a83.33,83.33,0,0,0,1,14.25Zm-1.6-30.35c-11.79-.25-25.19,1.84-25.19,13.39,0,7,4.68,10.33,10.2,10.33a14.8,14.8,0,0,0,14.38-10,11.18,11.18,0,0,0,.61-3.44Z"/><path class="cls-1" d="M239.54,275.9c-2.83,1.48-9.1,3.44-17.09,3.44-17.94,0-29.61-12.16-29.61-30.35s12.53-31.59,31.95-31.59a36,36,0,0,1,15,3.08l-2.46,8.35c-2.58-1.47-6.63-2.82-12.53-2.82-13.64,0-21,10.08-21,22.48,0,13.77,8.85,22.25,20.65,22.25a30.74,30.74,0,0,0,13.27-2.95Z"/><path class="cls-1" d="M305.31,247.88c0,22-15.24,31.58-29.62,31.58-16.1,0-28.51-11.79-28.51-30.6,0-19.9,13-31.58,29.49-31.58C293.76,217.28,305.31,229.69,305.31,247.88Zm-47.19.61c0,13,7.5,22.86,18.06,22.86,10.33,0,18.07-9.7,18.07-23.1,0-10.08-5-22.86-17.82-22.86S258.12,237.19,258.12,248.49Z"/><path class="cls-1" d="M319,234.73c0-6.14-.12-11.18-.49-16.1h9.59l.61,9.84H329c2.95-5.66,9.83-11.19,19.66-11.19,8.23,0,21,4.92,21,25.31v35.52H358.81V243.83c0-9.59-3.56-17.58-13.77-17.58a15.38,15.38,0,0,0-14.5,11.06,15.62,15.62,0,0,0-.73,5v35.76H319Z"/><path class="cls-1" d="M399.77,201.55v17.08h15.48v8.23H399.77v32.08c0,7.38,2.09,11.55,8.11,11.55a24.41,24.41,0,0,0,6.26-.73l.5,8.11a26.52,26.52,0,0,1-9.59,1.47c-5,0-9.09-1.6-11.67-4.54-3.08-3.2-4.18-8.48-4.18-15.49V226.86H380v-8.23h9.22V204.37Z"/><path class="cls-1" d="M460.37,278.11l-.86-7.49h-.37A22.12,22.12,0,0,1,441,279.46c-12,0-18.19-8.48-18.19-17.08,0-14.38,12.78-22.24,35.76-22.12V239c0-4.91-1.35-13.76-13.52-13.76a29.66,29.66,0,0,0-15.48,4.42l-2.46-7.12c4.92-3.2,12-5.29,19.54-5.29,18.19,0,22.61,12.41,22.61,24.33v22.25a82.33,82.33,0,0,0,1,14.25Zm-1.6-30.35c-11.79-.25-25.19,1.84-25.19,13.39,0,7,4.67,10.33,10.2,10.33a14.8,14.8,0,0,0,14.38-10,11.18,11.18,0,0,0,.61-3.44Z"/><polygon class="cls-1" points="191.62 186.78 144.33 238.81 137.94 245.84 164.78 259.97 126.42 313.22 187.98 256.44 163.42 241.8 191.62 186.78"/>
</svg>